<?xml version="1.0" encoding="utf-8"?>
<!-- Generator: Adobe Illustrator 17.0.0, SVG Export Plug-In . SVG Version: 6.00 Build 0)  -->
<!DOCTYPE svg PUBLIC "-//W3C//DTD SVG 1.1//EN" "http://www.w3.org/Graphics/SVG/1.1/DTD/svg11.dtd">
<svg version="1.1" id="Layer_1" xmlns="http://www.w3.org/2000/svg" xmlns:xlink="http://www.w3.org/1999/xlink" x="0px" y="0px"
	 width="100px" height="100px" viewBox="0 0 100 100" enable-background="new 0 0 100 100" xml:space="preserve">
<circle display="none" fill="#1D1D1B" cx="50" cy="50" r="42"/>
<circle display="none" fill="#1D1D1B" cx="50" cy="50" r="42"/>
<g>
	<path fill="#333333" d="M22.503,87.592h-6.715l0.587-6.883c0.727-6.883,4.036-12.156,9.926-15.822
		c5.889-3.665,14.01-5.498,24.362-5.498c10.353,0,18.474,1.826,24.363,5.478c5.89,3.65,9.197,8.918,9.926,15.801l0.587,6.925h-6.715
		l-0.587-6.295c-0.252-2.406-1.001-4.539-2.246-6.4c-1.245-1.86-2.763-3.337-4.553-4.428c-1.791-1.092-3.897-1.986-6.316-2.687
		c-2.421-0.698-4.785-1.175-7.093-1.427c-2.309-0.252-4.764-0.378-7.366-0.378c-2.602,0-5.057,0.126-7.365,0.378
		c-2.308,0.252-4.673,0.729-7.093,1.427c-2.42,0.7-4.526,1.603-6.316,2.707c-1.791,1.106-3.309,2.581-4.554,4.428
		c-1.246,1.847-1.994,3.987-2.246,6.422L22.503,87.592z M64.073,47.533c-3.596,4.323-8.065,6.484-13.409,6.484
		c-5.344,0-9.814-2.161-13.409-6.484c-3.595-4.323-5.393-9.701-5.393-16.137c0-3.357,0.854-6.505,2.56-9.443
		c1.707-2.938,4.008-5.267,6.904-6.988c2.896-1.721,6.008-2.581,9.337-2.581c3.33,0,6.442,0.86,9.339,2.581
		c2.896,1.721,5.196,4.05,6.903,6.988c1.706,2.938,2.561,6.085,2.561,9.443C69.467,37.832,67.668,43.21,64.073,47.533z
		 M59.227,22.645c-2.463-2.503-5.316-3.756-8.562-3.756c-3.246,0-6.1,1.252-8.561,3.756c-2.462,2.504-3.693,5.421-3.693,8.75
		c0,4.589,1.168,8.422,3.504,11.5c2.336,3.078,5.252,4.617,8.75,4.617c3.498,0,6.414-1.539,8.751-4.617
		c2.336-3.077,3.504-6.91,3.504-11.5C62.919,28.066,61.688,25.149,59.227,22.645z"/>
</g>
</svg>
