<?xml version="1.0" encoding="utf-8"?>
<!-- Generator: Adobe Illustrator 17.0.0, SVG Export Plug-In . SVG Version: 6.00 Build 0)  -->
<!DOCTYPE svg PUBLIC "-//W3C//DTD SVG 1.1//EN" "http://www.w3.org/Graphics/SVG/1.1/DTD/svg11.dtd">
<svg version="1.1" id="Layer_1" xmlns="http://www.w3.org/2000/svg" xmlns:xlink="http://www.w3.org/1999/xlink" x="0px" y="0px"
	 width="100px" height="100px" viewBox="0 0 100 100" enable-background="new 0 0 100 100" xml:space="preserve">
<circle display="none" fill="#1D1D1B" cx="50" cy="50" r="42"/>
<circle display="none" fill="#1D1D1B" cx="50" cy="50" r="42"/>
<g>
	<path fill="#333333" d="M30.841,20.716h52.718l-0.279,3.421c-0.054,1.114-0.318,4.557-0.796,10.324
		c-0.478,5.769-0.836,9.411-1.074,10.922c-0.372,2.573-1.565,4.741-3.581,6.505c-2.016,1.764-4.522,2.859-7.52,3.283
		c-0.054,0-10.491,1.246-31.313,3.74v-6.406c2.175-0.265,5.65-0.677,10.424-1.234c4.774-0.557,9.052-1.061,12.832-1.511
		c3.779-0.451,6.186-0.756,7.221-0.915c1.564-0.186,2.851-0.677,3.859-1.472c1.007-0.796,1.604-1.777,1.791-2.944
		c0.292-1.883,0.809-7.665,1.552-17.348H31.358v33.063c0,1.166,0.377,2.103,1.133,2.805c0.756,0.703,1.784,1.054,3.084,1.054h42.891
		v6.366H35.576c-3.023,0-5.545-0.974-7.56-2.924c-2.016-1.95-3.023-4.383-3.023-7.301V23.82c0-1.166-0.472-2.189-1.413-3.063
		c-0.942-0.875-2.035-1.313-3.282-1.313H8.441v-6.365h11.856c2.413,0,4.595,0.716,6.544,2.149S30.125,18.489,30.841,20.716z
		 M26.862,76.06c1.246-1.246,2.745-1.87,4.496-1.87s3.249,0.623,4.496,1.87c1.246,1.247,1.869,2.745,1.869,4.496
		c0,1.751-0.623,3.25-1.869,4.496c-1.247,1.247-2.745,1.87-4.496,1.87s-3.25-0.623-4.496-1.87c-1.247-1.246-1.87-2.745-1.87-4.496
		C24.992,78.805,25.615,77.307,26.862,76.06z M67.604,76.06c1.246-1.246,2.745-1.87,4.496-1.87c1.751,0,3.249,0.623,4.496,1.87
		c1.246,1.247,1.87,2.745,1.87,4.496c0,1.751-0.623,3.25-1.87,4.496c-1.247,1.247-2.745,1.87-4.496,1.87
		c-1.751,0-3.25-0.623-4.496-1.87c-1.247-1.246-1.87-2.745-1.87-4.496C65.734,78.805,66.357,77.307,67.604,76.06z"/>
</g>
</svg>
