<?xml version="1.0" ?><!DOCTYPE svg  PUBLIC '-//W3C//DTD SVG 1.1//EN'  'http://www.w3.org/Graphics/SVG/1.1/DTD/svg11.dtd'><svg enable-background="new 0 0 48 48" height="48px" version="1.1" viewBox="0 0 48 48" width="48px" x="0px" xml:space="preserve" xmlns="http://www.w3.org/2000/svg" xmlns:xlink="http://www.w3.org/1999/xlink" y="0px"><g id="Expanded"><g><g><path d="M41,48H7c-0.552,0-1-0.448-1-1v-6c0-0.552,0.448-1,1-1h34c0.552,0,1,0.448,1,1v6C42,47.552,41.552,48,41,48z M8,46h32v-4     H8V46z"/></g><g><path d="M41,42H7c-1.654,0-3-1.346-3-3V6c0-3.309,2.691-6,6-6h28c3.309,0,6,2.691,6,6v33C44,40.654,42.654,42,41,42z M10,2     C7.794,2,6,3.794,6,6v33c0,0.551,0.449,1,1,1h34c0.551,0,1-0.449,1-1V6c0-2.206-1.794-4-4-4H10z"/></g><g><path d="M36.692,30H11.308C9.484,30,8,28.736,8,27.182V6.818C8,5.264,9.484,4,11.308,4h25.385C38.516,4,40,5.264,40,6.818v20.363     C40,28.736,38.516,30,36.692,30z M11.308,6C10.537,6,10,6.431,10,6.818v20.363C10,27.569,10.537,28,11.308,28h25.385     C37.463,28,38,27.569,38,27.182V6.818C38,6.431,37.463,6,36.692,6H11.308z"/></g><g><path d="M14,36h-4c-0.552,0-1-0.448-1-1s0.448-1,1-1h4c0.552,0,1,0.448,1,1S14.552,36,14,36z"/></g><g><path d="M38,36H28c-0.552,0-1-0.448-1-1s0.448-1,1-1h10c0.552,0,1,0.448,1,1S38.552,36,38,36z"/></g><g><path d="M17,16c-0.552,0-1-0.448-1-1v-4c0-0.552,0.448-1,1-1s1,0.448,1,1v4C18,15.552,17.552,16,17,16z"/></g><g><path d="M31,16c-0.552,0-1-0.448-1-1v-4c0-0.552,0.448-1,1-1s1,0.448,1,1v4C32,15.552,31.552,16,31,16z"/></g><g><path d="M25,20h-2c-0.552,0-1-0.448-1-1s0.448-1,1-1h1v-5c0-0.552,0.448-1,1-1s1,0.448,1,1v6C26,19.552,25.552,20,25,20z"/></g><g><path d="M27,26h-6c-1.654,0-3-1.346-3-3c0-0.552,0.448-1,1-1s1,0.448,1,1c0,0.551,0.449,1,1,1h6c0.551,0,1-0.449,1-1     c0-0.552,0.448-1,1-1s1,0.448,1,1C30,24.654,28.654,26,27,26z"/></g></g></g></svg>