<?xml version="1.0" ?><!DOCTYPE svg  PUBLIC '-//W3C//DTD SVG 1.1//EN'  'http://www.w3.org/Graphics/SVG/1.1/DTD/svg11.dtd'><svg enable-background="new 0 0 48 48" height="48px" version="1.1" viewBox="0 0 48 48" width="48px" x="0px" xml:space="preserve" xmlns="http://www.w3.org/2000/svg" xmlns:xlink="http://www.w3.org/1999/xlink" y="0px"><g id="Expanded"><g><g><path d="M35,34H11c-1.654,0-3-1.346-3-3V7c0-3.86,3.14-7,7-7h16c3.86,0,7,3.14,7,7v24C38,32.654,36.654,34,35,34z M15,2     c-2.757,0-5,2.243-5,5v24c0,0.551,0.449,1,1,1h24c0.551,0,1-0.449,1-1V7c0-2.757-2.243-5-5-5H15z"/></g><g><path d="M31,22H15c-1.654,0-3-1.346-3-3V7c0-1.654,1.346-3,3-3h16c1.654,0,3,1.346,3,3v12C34,20.654,32.654,22,31,22z M15,6     c-0.551,0-1,0.449-1,1v12c0,0.551,0.449,1,1,1h16c0.551,0,1-0.449,1-1V7c0-0.551-0.449-1-1-1H15z"/></g><g><path d="M31,26h-6c-0.552,0-1-0.448-1-1s0.448-1,1-1h6c0.552,0,1,0.448,1,1S31.552,26,31,26z"/></g><g><path d="M47,48H1c-0.552,0-1-0.448-1-1v-4c0-0.265,0.105-0.52,0.293-0.707l6-6C6.48,36.105,6.735,36,7,36h34     c0.265,0,0.52,0.105,0.707,0.293l6,6C47.895,42.48,48,42.735,48,43v4C48,47.552,47.552,48,47,48z M2,46h44v-2.586L40.586,38     H7.414L2,43.414V46z"/></g><g><path d="M47,44H1c-0.552,0-1-0.448-1-1s0.448-1,1-1h46c0.552,0,1,0.448,1,1S47.552,44,47,44z"/></g><g><path d="M43,38h-2v-2h2c1.654,0,3-1.346,3-3s-1.346-3-3-3h-6v-2h6c2.757,0,5,2.243,5,5S45.757,38,43,38z"/></g><g><path d="M12,39c-0.552,0-1,0.447-1,1s0.448,1,1,1c0.552,0,1-0.447,1-1S12.552,39,12,39L12,39z"/></g><g><path d="M18,39c-0.552,0-1,0.447-1,1s0.448,1,1,1c0.552,0,1-0.447,1-1S18.552,39,18,39L18,39z"/></g><g><path d="M24,39c-0.552,0-1,0.447-1,1s0.448,1,1,1c0.552,0,1-0.447,1-1S24.552,39,24,39L24,39z"/></g><g><path d="M30,39c-0.552,0-1,0.447-1,1s0.448,1,1,1c0.552,0,1-0.447,1-1S30.552,39,30,39L30,39z"/></g><g><path d="M36,39c-0.552,0-1,0.447-1,1s0.448,1,1,1c0.552,0,1-0.447,1-1S36.552,39,36,39L36,39z"/></g></g></g></svg>